<svg version="1.1" xmlns="http://www.w3.org/2000/svg" xmlns:xlink="http://www.w3.org/1999/xlink" width="25px" height="25px" viewBox="0,0,256,256"><g fill="#77778d" fill-rule="nonzero" stroke="none" stroke-width="1" stroke-linecap="butt" stroke-linejoin="miter" stroke-miterlimit="10" stroke-dasharray="" stroke-dashoffset="0" font-family="none" font-weight="none" font-size="none" text-anchor="none" style="mix-blend-mode: normal"><g transform="scale(4,4)"><path d="M45.82617,11.81055c-1.62875,0 -3.25609,0.61937 -4.49609,1.85938l-27.82031,27.82031l-3.41992,10.20898c-0.45,1.36 0.85094,2.66094 2.21094,2.21094l10.20898,-3.41992l27.82031,-27.82031c2.48,-2.48 2.48,-6.51 0,-9c-1.245,-1.24 -2.87516,-1.85937 -4.50391,-1.85937zM45.66016,15.97852c0.6045,0.00012 1.20892,0.23041 1.66992,0.69141c0.922,0.922 0.922,2.41684 0,3.33984l-1.36914,1.37109l-3.3418,-3.3418l1.37109,-1.36914c0.461,-0.4615 1.06542,-0.69153 1.66992,-0.69141zM39.78906,20.86914l3.3418,3.3418l-19.79102,19.79883l-3.34961,-3.34961zM17.16016,43.49023l3.34961,3.34961v0.00195l-4.03906,1.92969c-0.347,0.166 -0.76202,0.09898 -1.04101,-0.16602c-0.292,-0.277 -0.37322,-0.71022 -0.19922,-1.07422z"></path></g></g></svg>